<?xml version="1.0" encoding="utf-8"?>
<!-- Generator: Adobe Illustrator 22.1.0, SVG Export Plug-In . SVG Version: 6.00 Build 0)  -->
<svg version="1.1" id="Layer_1" opacity="0.2" xmlns="http://www.w3.org/2000/svg" xmlns:xlink="http://www.w3.org/1999/xlink"
	 x="0px" y="0px" viewBox="0 0 60.9 60.9" style="enable-background:new 0 0 60.9 60.9;" xml:space="preserve">
<style type="text/css">
	.st0{fill:#004098;}
</style>
<title>icon</title>
<g id="Layer_2_1_">
	<g id="Layer_1-2">
		<g id="icon">
			<path class="st0" d="M30.1,60.9c-8,0-14.9-5.4-17-13.1c-9.4-2.4-15-12-12.6-21.4C2.2,20,7.3,15.1,13.7,13.7
				c2.1-9.4,11.5-15.4,21-13.3c6.4,1.4,11.5,6.3,13.2,12.7c9.4,2.4,15,12,12.5,21.4c-1.7,6.4-6.7,11.3-13.2,12.7
				C45.4,55.2,38.3,60.9,30.1,60.9z M30.9,1.3c-7.8,0-14.4,5.5-15.9,13.1l-0.1,0.4l-0.4,0.1C5.7,16.6,0,25.1,1.7,33.9
				c1.2,6.3,6,11.2,12.2,12.7l0.4,0.1l0.1,0.4c2,8.7,10.7,14.2,19.4,12.1c6.2-1.4,11-6.4,12.2-12.7l0.1-0.4l0.4-0.1
				c8.8-1.7,14.5-10.2,12.8-19c-1.2-6.3-6-11.2-12.2-12.7l-0.4-0.1l-0.1-0.4C44.9,6.5,38.4,1.3,30.9,1.3z"/>
			<path class="st0" d="M30.1,57c-7.1,0-13-5.5-13.5-12.6C9,43.8,3.4,37.3,4,29.8c0.5-7,6.3-12.4,13.3-12.6
				c0.1-7.5,6.3-13.5,13.8-13.3c7,0.1,12.8,5.6,13.3,12.6c7.5,0.6,13.1,7.1,12.5,14.6c-0.5,7-6.3,12.4-13.3,12.6
				C43.5,51.1,37.5,57,30.1,57z M17.5,18.6c-6.8,0-12.2,5.6-12.1,12.4c0.1,6.5,5.3,11.9,11.8,12.1h0.6v0.6c0.3,6.8,6,12.1,12.8,11.8
				c6.5-0.3,11.7-5.6,11.8-12.2V43v-0.8h0.8h0.3c6.8-0.1,12.2-5.6,12.2-12.4c-0.1-6.6-5.3-11.9-11.8-12.2h-0.6V17
				c-0.3-6.8-6-12.1-12.8-11.8C24,5.5,18.8,10.8,18.7,17.3v0.3v0.8h-0.8L17.5,18.6z"/>
			<path class="st0" d="M47,29.4c-0.7-1.1-1.8-0.6-2.8-0.9c0.2-0.2,0.3-0.4,0.5-0.6c0.4-0.8,0.2-1.7-0.4-2.2c-0.6-0.5-1,0.3-1.4,0.8
				s-0.8,0.7-1.2,1.1c-1.7,1.6-4.2,2.1-6.3,1.2c-0.3-0.2-0.9-0.2-0.8-0.7c0.1-0.4,0.4-0.7,0.8-0.7c1.1-0.2,1.9-1.1,2-2.2
				c0.2-0.6,0.3-1.2,0.6-1.8c-1.5,0.4-3.1,0.3-4.2,1.6c-0.9,1.1-1.2,1-1.9-0.3c-0.3-0.5-0.4-1.2-0.3-1.8c0.3-2.5,1.6-4.7,3.7-6.1
				c0.2-0.1,0.7-0.2,0.5-0.6c-0.1-0.4-0.5-0.7-0.9-0.6c-1-0.2-2.1,0.2-2.5,1.1c-0.1-1-0.2-1.7-0.3-2.4c-0.1-0.7-0.6-1.2-1.2-1.4
				s-1,0.4-1.4,0.8c-0.6,0.7-0.3,1.6-0.6,2.4c-0.8-0.9-2.1-1-3-0.2c-0.6,0.4-0.6,0.6,0,1.1c1.7,1.4,2.8,3.4,3.3,5.5
				c0.2,1,0,2.1-0.6,3c-0.3,0.6-0.7,0.6-0.9-0.1c-0.3-1.2-1.4-1.9-2.5-1.8c-0.6,0-1.3-0.1-1.8-0.5c-0.2,0.8,0.4,1.2,0.3,1.9
				c-0.1,1.1,0.7,2.1,1.8,2.3c0.8,0.2,0.8,0.7,0.8,1.3c0,0.8-0.6,0.7-1.1,0.7c-3.1,0.4-6.2-0.8-8.3-3.1c-0.6-0.6-0.9-0.5-1.3,0.2
				c-0.7,1.1,0,1.8,0.8,2.5c-0.3,0.3-0.6,0.1-0.9,0.1c-0.4,0-0.8,0-1.2,0c-0.8-0.1-1.5,0.5-1.5,1.2c0,0,0,0,0,0.1
				c-0.1,0.7,0.6,1.1,1.3,1.3s1.5,0.1,2.1,0.6C15,33.4,15,34,15.8,35c0.4,0.5,0.6,0.4,1,0c1.1-1.3,2.5-2.3,4.1-2.9
				c1.8-0.6,3.6-1,5.2,0.7c0.2,0.2,0.4,0.4,0.4,0.7s-0.4,0.4-0.6,0.3c-0.8,0-1.2,0.5-1.5,1c-0.6,0.9-0.3,2.1-0.9,3.1
				c2,0,3.9-0.2,4.4-2.5c0.1-0.3,0.3-0.6,0.7-0.5c0.5,0.2,0.8,0.6,0.8,1.1c0.2,3.1-1.1,6.1-3.3,8.2c-0.9,1-0.4,1.1,0.2,1.5
				s1.3,0.4,1.9,0.1c0.4-0.2,0.4-0.9,0.9-1.1c0.2,0.6,0.2,1.3,0.2,1.9c0.1,0.7,0.6,1.3,1.2,1.6s1-0.2,1.4-0.6
				c0.5-0.5,0.6-1.2,0.5-1.8c0-0.4-0.3-0.8,0.1-1.2c0.1,0.1,0.2,0.1,0.3,0.2c0.7,0.8,1.7,1,2.2,0.4c0.8-0.9-0.1-1.2-0.6-1.8
				c-1.9-2-2.8-4.7-2.4-7.3c0-0.4,0.1-0.9,0.7-1c0.5-0.1,0.7,0.4,0.8,0.7c0.2,0.8,0.8,1.4,1.6,1.6c0.8,0.1,1.7,0.2,2.5,0.2
				c-0.2-0.5-0.3-1.1-0.3-1.7c0.1-1-0.5-2-1.6-2.1c-0.3-0.1-0.6-0.2-0.9-0.3c-0.6-0.3-0.7-0.6-0.1-1c0.8-0.7,1.8-1,2.8-0.8
				c2.3,0.6,4.7,1.1,6,3.5c0.1,0.3,0.4,0.6,0.7,0.8c0.8-1.4,1.8-2.8-0.4-4.1c1.1,0,1.8,0,2.6-0.1C47.5,31.5,47.7,30.5,47,29.4z
				 M30.5,33.8c-1.9,0-3.4-1.4-3.5-3.3c0-0.1,0-0.2,0-0.3c0-1.7,1.4-3.1,3.2-3.1c0.1,0,0.1,0,0.2,0c1.7,0.1,3.8,1.3,3.6,3.4
				C34,32.3,32.2,33.8,30.5,33.8z"/>
			<path class="st0" d="M30.6,28.4c-1,0-1.9,0.8-1.9,1.9s0.8,1.9,1.9,1.9c1-0.1,1.8-0.9,1.9-1.9C32.4,29.3,31.6,28.4,30.6,28.4
				L30.6,28.4z"/>
		</g>
	</g>
</g>
</svg>
