<?xml version="1.0" encoding="utf-8"?>
<!-- Generator: Adobe Illustrator 22.1.0, SVG Export Plug-In . SVG Version: 6.00 Build 0)  -->
<svg version="1.1" id="Layer_1" xmlns="http://www.w3.org/2000/svg" xmlns:xlink="http://www.w3.org/1999/xlink" x="0px" y="0px"
	 viewBox="0 0 24.9 24.9" style="enable-background:new 0 0 24.9 24.9;" xml:space="preserve">
<style type="text/css">
	.st0{fill:#004098;}
</style>
<title>bullet</title>
<g id="Layer_2_1_">
	<g id="Layer_1-2">
		<g id="bullet">
			<path class="st0" d="M22.2,16.7c0.7-1.1,0-1.8-0.8-2.5c0.3-0.3,0.6-0.1,0.9-0.1c0.4,0,0.8,0,1.1,0c0.8,0.1,1.4-0.5,1.5-1.2
				c0,0,0,0,0-0.1c0.1-0.7-0.6-1-1.3-1.3s-1.5-0.1-2.1-0.6c1-1.3,1.1-1.9,0.3-2.9c-0.4-0.5-0.5-0.4-0.9,0c-1.4,1.6-3.2,2.8-5.2,3.6
				c-0.4,0.2-0.9,0.3-0.9,0.9l0,0c0,0.5,0.3,1,0.8,1.1c0.7,0.2,1.3,0.5,2,0.8c1.3,0.6,2.4,1.5,3.4,2.5
				C21.4,17.5,21.8,17.3,22.2,16.7z"/>
			<path class="st0" d="M2.8,8.2c-0.7,1.1,0,1.8,0.8,2.5c-0.3,0.3-0.6,0.1-0.9,0.1c-0.4,0-0.8,0-1.1,0c-0.8-0.1-1.4,0.5-1.5,1.2
				c0,0,0,0.1,0,0.1c-0.1,0.7,0.6,1.1,1.3,1.3s1.5,0.1,2.1,0.6c-1,1.3-1.1,1.9-0.3,2.9c0.4,0.5,0.5,0.4,0.9,0
				c1.4-1.6,3.2-2.8,5.2-3.6c0.4-0.2,0.9-0.3,0.9-0.8l0,0c0-0.5-0.3-1-0.8-1.1c-0.7-0.2-1.3-0.5-2-0.8C6.2,10,5,9.1,4.1,8.1
				C3.5,7.4,3.2,7.6,2.8,8.2z"/>
			<path class="st0" d="M16.7,2.8c-1.1-0.7-1.8,0-2.5,0.8c-0.3-0.3-0.1-0.6-0.1-0.9c0-0.4,0-0.8,0-1.1c0.1-0.8-0.5-1.4-1.2-1.5
				c0,0-0.1,0-0.1,0c-0.7-0.1-1,0.6-1.3,1.3s-0.1,1.5-0.6,2.1C9.6,2.4,9,2.3,8,3.1C7.5,3.5,7.6,3.7,8,4.1c1.6,1.4,2.8,3.2,3.6,5.2
				c0.2,0.4,0.3,0.9,0.9,0.9l0,0c0.5,0,1-0.3,1.1-0.8c0.2-0.7,0.5-1.3,0.8-2c0.6-1.3,1.5-2.4,2.5-3.4C17.5,3.5,17.3,3.2,16.7,2.8z"
				/>
			<path class="st0" d="M8.2,22.2c1.1,0.7,1.8,0,2.5-0.8c0.3,0.3,0.1,0.6,0.1,0.9c0,0.4,0,0.8,0,1.1c-0.1,0.8,0.5,1.4,1.2,1.5
				c0,0,0,0,0.1,0c0.7,0.1,1.1-0.6,1.3-1.3s0.1-1.5,0.6-2.1c1.3,1,1.9,1.1,2.9,0.3c0.5-0.4,0.4-0.5,0-0.9c-1.6-1.4-2.8-3.2-3.6-5.2
				c-0.2-0.4-0.3-0.9-0.8-0.9l0,0c-0.5,0-1,0.3-1.1,0.8c-0.2,0.7-0.5,1.3-0.8,2c-0.6,1.3-1.5,2.4-2.5,3.4
				C7.4,21.4,7.6,21.8,8.2,22.2z"/>
			<path class="st0" d="M10.7,12.5c0-1,0.8-1.8,1.9-1.9c1,0,1.8,0.8,1.9,1.8c0,1-0.8,1.9-1.8,1.9c0,0,0,0-0.1,0
				C11.5,14.3,10.7,13.5,10.7,12.5C10.7,12.5,10.7,12.5,10.7,12.5z"/>
		</g>
	</g>
</g>
</svg>
