<?xml version="1.0" encoding="utf-8"?>
<!-- Generator: Adobe Illustrator 22.1.0, SVG Export Plug-In . SVG Version: 6.00 Build 0)  -->
<svg version="1.1" id="Layer_1" xmlns="http://www.w3.org/2000/svg" xmlns:xlink="http://www.w3.org/1999/xlink" x="0px" y="0px"
	 viewBox="0 0 27.7 59.4" style="enable-background:new 0 0 27.7 59.4;" xml:space="preserve">
<style type="text/css">
	.st0{fill:#DCE6F2;}
</style>
<title>side-icon</title>
<g id="Layer_2_1_">
	<g id="Layer_1-2">
		<g id="side-icon">
			<path class="st0" d="M2.5,42.5c1.3,0.3,1.7-0.9,2.7-1.3c0,0.3,0.1,0.5,0.1,0.8c0.3,0.8,1.1,1.4,1.9,1.3c0.8-0.1,0.5-1,0.5-1.6
				s0.1-1.1,0.1-1.7c0-2.4,1.5-4.5,3.7-5.4c0.4-0.1,0.8-0.5,1.1-0.1c0.2,0.4,0.2,0.8-0.1,1.1c-0.6,0.9-0.5,2.1,0.2,3
				c0.3,0.6,0.6,1.1,0.9,1.7c0.7-1.4,2-2.4,1.8-4.2c-0.1-1.4,0.1-1.6,1.6-1.2c0.6,0.2,1.1,0.6,1.5,1.1c1.6,2,2.2,4.6,1.7,7.1
				c0,0.3-0.3,0.6,0.1,0.8c0.4,0.2,0.8,0.1,1.1-0.2c0.9-0.6,1.3-1.7,1-2.7c0.8,0.6,1.4,1.1,2,1.6c0.5,0.4,1.3,0.5,1.9,0.1
				c0.6-0.3,0.4-1,0.4-1.6c-0.1-1-1-1.4-1.4-2.2c1.5-0.2,2.1-0.7,2.4-2c0.1-0.7,0-0.9-0.8-0.8c-2.2,0.2-4.5-0.4-6.3-1.6
				C19.6,34,19,33.1,18.8,32c-0.2-0.7,0.1-1,0.7-0.6c1,0.6,2.4,0.4,3.1-0.5c0.4-0.5,1-0.9,1.7-1c-0.4-0.7-1.2-0.6-1.6-1.1
				c-0.7-0.9-2-1-2.9-0.3c-0.8,0.4-1.1,0-1.5-0.4s0-1,0.3-1.3c2.2-2.5,4.9-4,8.3-3.7c0.9,0.1,1-0.3,0.8-1.1
				c-0.3-1.3-1.3-1.3-2.4-1.2c0-0.4,0.4-0.5,0.5-0.7s0.5-0.6,0.8-0.9c0.6-0.5,0.7-1.4,0.2-2c0,0,0,0,0,0c-0.5-0.6-1.2-0.3-1.9,0
				s-1.2,1-2,1.1c-0.2-1.7-0.6-2.1-1.9-2.3c-0.6-0.1-0.7,0.1-0.7,0.7c0.1,1.7-0.2,3.5-0.9,5.1c-0.9,1.7-1.9,3.4-4.2,3.2
				c-0.3,0-0.6,0-0.8-0.2s0-0.5,0.2-0.7c0.5-0.5,0.6-1.2,0.4-1.9c-0.2-1.1-1.3-1.7-1.6-2.8c-1.4,1.5-2.7,2.9-1.4,5
				c0.2,0.3,0.2,0.7-0.1,0.8c-0.4,0.2-1,0.1-1.3-0.2c-2.3-2.1-3.6-5.1-3.5-8.3c0-1.4-0.5-1.1-1.2-0.9c-0.7,0.1-1.2,0.6-1.4,1.3
				c-0.2,0.5,0.3,0.9,0.1,1.5c-0.6-0.3-1.1-0.7-1.5-1.2c-0.6-0.5-1.3-0.6-2-0.2c-0.6,0.2-0.5,0.9-0.6,1.5c0,0.8,0.5,1.2,1,1.7
				c0.3,0.3,0.8,0.4,0.8,0.9c-0.1,0-0.3,0.1-0.4,0.1C0.8,21-0.1,21.5,0,22.3c0.1,1.2,1,0.8,1.7,0.9c2.8,0,5.4,1.4,7.1,3.6
				c0.3,0.3,0.6,0.8,0.2,1.2s-0.7,0.2-1.1,0c-0.7-0.4-1.6-0.4-2.3,0c-0.7,0.5-1.3,1.1-2,1.7c0.5,0.2,1,0.6,1.4,1
				c0.6,0.8,1.8,1,2.7,0.4c0.3-0.2,0.6-0.3,0.9-0.4c0.6-0.2,0.9,0,0.8,0.6c0,1.1-0.5,2-1.4,2.7c-2.1,1.3-4.2,2.7-6.9,1.8
				c-0.3-0.1-0.7-0.1-1.1,0c0.4,1.6,0.7,3.3,3.2,2.6c-0.7,0.8-1.3,1.3-1.8,2C0.7,41.3,1.2,42.2,2.5,42.5z M11.3,27.4
				c1.3-1.4,3.5-1.5,4.9-0.1c0.1,0.1,0.2,0.2,0.2,0.2c1.2,1.3,1.2,3.3,0,4.5c-0.1,0.1-0.1,0.1-0.2,0.2c-1.3,1.1-3.7,1.8-5,0.1
				C9.9,31.1,10.1,28.6,11.3,27.4z"/>
			<path class="st0" d="M15.1,31.3c0.8-0.7,0.8-1.9,0-2.7c-0.7-0.8-1.9-0.8-2.7,0l0,0c-0.7,0.8-0.7,1.9,0,2.7
				C13.2,32,14.4,32.1,15.1,31.3C15.1,31.3,15.1,31.3,15.1,31.3z"/>
			<path class="st0" d="M12.3,14.9c0-0.9,0.7-1.6,1.6-1.6c0.9,0,1.6,0.7,1.6,1.6c0,0.9-0.7,1.6-1.6,1.6c0,0,0,0-0.1,0
				C13,16.5,12.3,15.8,12.3,14.9C12.3,14.9,12.3,14.9,12.3,14.9z"/>
			<path class="st0" d="M13.7,0c-2.9,3.1-2.9,8,0,11.1C16.6,8,16.6,3.1,13.7,0z"/>
			<path class="st0" d="M13.8,43c0.9-0.1,1.7,0.6,1.7,1.5c0.1,0.9-0.6,1.7-1.5,1.7c-0.1,0-0.2,0-0.3,0c-0.9,0-1.6-0.7-1.6-1.6
				C12.2,43.7,12.9,43,13.8,43C13.8,43,13.8,43,13.8,43z"/>
			<path class="st0" d="M13.7,59.4c-2.9-3.1-2.9-8,0-11.1C16.6,51.5,16.6,56.3,13.7,59.4z"/>
		</g>
	</g>
</g>
</svg>
