<?xml version="1.0" encoding="utf-8"?>
<!-- Generator: Adobe Illustrator 22.1.0, SVG Export Plug-In . SVG Version: 6.00 Build 0)  -->
<svg version="1.1" xmlns="http://www.w3.org/2000/svg" xmlns:xlink="http://www.w3.org/1999/xlink" x="0px" y="0px"
	 viewBox="0 0 62.4 62.8" style="enable-background:new 0 0 62.4 62.8;" xml:space="preserve">
<style type="text/css">
	.st0{fill:#F5F9FC;stroke:#F5F9FC;stroke-miterlimit:10;}
	.st1{fill:#FFFFFF;}
</style>
<g id="Layer_2">
	<rect x="-1.9" y="-1.6" class="st0" width="66" height="66"/>
</g>
<g id="Layer_1">
	<title>icon</title>
	<g id="Layer_2_1_">
		<g id="Layer_1-2">
			<g id="icon">
				<path class="st1" d="M30.9,61.5c-8,0-14.9-5.4-17-13.1C4.5,46-1.1,36.4,1.3,27C3,20.6,8.1,15.7,14.5,14.3
					C16.6,4.9,26-1.1,35.5,1C41.9,2.4,47,7.3,48.7,13.7c9.4,2.4,15,12,12.5,21.4c-1.7,6.4-6.7,11.3-13.2,12.7
					C46.2,55.8,39.1,61.5,30.9,61.5z M31.7,1.9c-7.8,0-14.4,5.5-15.9,13.1l-0.1,0.4l-0.4,0.1c-8.8,1.7-14.5,10.2-12.8,19
					c1.2,6.3,6,11.2,12.2,12.7l0.4,0.1l0.1,0.4c2,8.7,10.7,14.2,19.4,12.1c6.2-1.4,11-6.4,12.2-12.7l0.1-0.4l0.4-0.1
					c8.8-1.7,14.5-10.2,12.8-19c-1.2-6.3-6-11.2-12.2-12.7l-0.4-0.1l-0.1-0.4C45.7,7.1,39.2,1.9,31.7,1.9z"/>
				<path class="st1" d="M30.9,57.6c-7.1,0-13-5.5-13.5-12.6C9.8,44.4,4.2,37.9,4.8,30.4c0.5-7,6.3-12.4,13.3-12.6
					c0.1-7.5,6.3-13.5,13.8-13.3c7,0.1,12.8,5.6,13.3,12.6c7.5,0.6,13.1,7.1,12.5,14.6c-0.5,7-6.3,12.4-13.3,12.6
					C44.3,51.7,38.3,57.6,30.9,57.6z M18.3,19.2c-6.8,0-12.2,5.6-12.1,12.4c0.1,6.5,5.3,11.9,11.8,12.1h0.6v0.6
					c0.3,6.8,6,12.1,12.8,11.8c6.5-0.3,11.7-5.6,11.8-12.2v-0.3v-0.8H44h0.3c6.8-0.1,12.2-5.6,12.2-12.4
					c-0.1-6.6-5.3-11.9-11.8-12.2h-0.6v-0.6c-0.3-6.8-6-12.1-12.8-11.8c-6.5,0.3-11.7,5.6-11.8,12.1v0.3V19h-0.8L18.3,19.2z"/>
				<path class="st1" d="M47.8,30c-0.7-1.1-1.8-0.6-2.8-0.9c0.2-0.2,0.3-0.4,0.5-0.6c0.4-0.8,0.2-1.7-0.4-2.2
					c-0.6-0.5-1,0.3-1.4,0.8s-0.8,0.7-1.2,1.1c-1.7,1.6-4.2,2.1-6.3,1.2c-0.3-0.2-0.9-0.2-0.8-0.7c0.1-0.4,0.4-0.7,0.8-0.7
					c1.1-0.2,1.9-1.1,2-2.2c0.2-0.6,0.3-1.2,0.6-1.8c-1.5,0.4-3.1,0.3-4.2,1.6c-0.9,1.1-1.2,1-1.9-0.3c-0.3-0.5-0.4-1.2-0.3-1.8
					c0.3-2.5,1.6-4.7,3.7-6.1c0.2-0.1,0.7-0.2,0.5-0.6c-0.1-0.4-0.5-0.7-0.9-0.6c-1-0.2-2.1,0.2-2.5,1.1c-0.1-1-0.2-1.7-0.3-2.4
					c-0.1-0.7-0.6-1.2-1.2-1.4c-0.6-0.2-1,0.4-1.4,0.8c-0.6,0.7-0.3,1.6-0.6,2.4c-0.8-0.9-2.1-1-3-0.2c-0.6,0.4-0.6,0.6,0,1.1
					c1.7,1.4,2.8,3.4,3.3,5.5c0.2,1,0,2.1-0.6,3c-0.3,0.6-0.7,0.6-0.9-0.1c-0.3-1.2-1.4-1.9-2.5-1.8c-0.6,0-1.3-0.1-1.8-0.5
					c-0.2,0.8,0.4,1.2,0.3,1.9c-0.1,1.1,0.7,2.1,1.8,2.3c0.8,0.2,0.8,0.7,0.8,1.3c0,0.8-0.6,0.7-1.1,0.7c-3.1,0.4-6.2-0.8-8.3-3.1
					c-0.6-0.6-0.9-0.5-1.3,0.2c-0.7,1.1,0,1.8,0.8,2.5c-0.3,0.3-0.6,0.1-0.9,0.1c-0.4,0-0.8,0-1.2,0c-0.8-0.1-1.5,0.5-1.5,1.2
					c0,0,0,0,0,0.1c-0.1,0.7,0.6,1.1,1.3,1.3c0.7,0.2,1.5,0.1,2.1,0.6c-1.2,1.2-1.2,1.8-0.4,2.8c0.4,0.5,0.6,0.4,1,0
					c1.1-1.3,2.5-2.3,4.1-2.9c1.8-0.6,3.6-1,5.2,0.7c0.2,0.2,0.4,0.4,0.4,0.7s-0.4,0.4-0.6,0.3c-0.8,0-1.2,0.5-1.5,1
					c-0.6,0.9-0.3,2.1-0.9,3.1c2,0,3.9-0.2,4.4-2.5c0.1-0.3,0.3-0.6,0.7-0.5c0.5,0.2,0.8,0.6,0.8,1.1c0.2,3.1-1.1,6.1-3.3,8.2
					c-0.9,1-0.4,1.1,0.2,1.5s1.3,0.4,1.9,0.1c0.4-0.2,0.4-0.9,0.9-1.1c0.2,0.6,0.2,1.3,0.2,1.9c0.1,0.7,0.6,1.3,1.2,1.6
					s1-0.2,1.4-0.6c0.5-0.5,0.6-1.2,0.5-1.8c0-0.4-0.3-0.8,0.1-1.2c0.1,0.1,0.2,0.1,0.3,0.2c0.7,0.8,1.7,1,2.2,0.4
					c0.8-0.9-0.1-1.2-0.6-1.8c-1.9-2-2.8-4.7-2.4-7.3c0-0.4,0.1-0.9,0.7-1c0.5-0.1,0.7,0.4,0.8,0.7c0.2,0.8,0.8,1.4,1.6,1.6
					c0.8,0.1,1.7,0.2,2.5,0.2c-0.2-0.5-0.3-1.1-0.3-1.7c0.1-1-0.5-2-1.6-2.1c-0.3-0.1-0.6-0.2-0.9-0.3c-0.6-0.3-0.7-0.6-0.1-1
					c0.8-0.7,1.8-1,2.8-0.8c2.3,0.6,4.7,1.1,6,3.5c0.1,0.3,0.4,0.6,0.7,0.8c0.8-1.4,1.8-2.8-0.4-4.1c1.1,0,1.8,0,2.6-0.1
					C48.3,32.1,48.5,31.1,47.8,30z M31.3,34.4c-1.9,0-3.4-1.4-3.5-3.3c0-0.1,0-0.2,0-0.3c0-1.7,1.4-3.1,3.2-3.1c0.1,0,0.1,0,0.2,0
					c1.7,0.1,3.8,1.3,3.6,3.4C34.8,32.9,33,34.4,31.3,34.4z"/>
				<path class="st1" d="M31.4,29c-1,0-1.9,0.8-1.9,1.9c0,1.1,0.8,1.9,1.9,1.9c1-0.1,1.8-0.9,1.9-1.9C33.2,29.9,32.4,29,31.4,29
					L31.4,29z"/>
			</g>
		</g>
	</g>
</g>
</svg>
